<svg xmlns="http://www.w3.org/2000/svg" viewBox="0 0 64 64" width="64" height="64" role="img" aria-label="小精灵">
  <defs>
    <radialGradient id="face" cx="50%" cy="42%" r="62%">
      <stop offset="0%" stop-color="#9be8a6"/>
      <stop offset="60%" stop-color="#5fd17a"/>
      <stop offset="100%" stop-color="#3fae5c"/>
    </radialGradient>
  </defs>
  <!-- ears -->
  <path d="M16 26 C4 18 4 34 14 38 Z" fill="#5fd17a"/>
  <path d="M48 26 C60 18 60 34 50 38 Z" fill="#5fd17a"/>
  <!-- face -->
  <circle cx="32" cy="34" r="20" fill="url(#face)"/>
  <!-- blush -->
  <circle cx="22" cy="38" r="3" fill="#ff9bb3" opacity="0.7"/>
  <circle cx="42" cy="38" r="3" fill="#ff9bb3" opacity="0.7"/>
  <!-- eyes -->
  <g fill="#23303a">
    <ellipse cx="25" cy="31" rx="3.4" ry="4.6"/>
    <ellipse cx="39" cy="31" rx="3.4" ry="4.6"/>
  </g>
  <circle cx="26.2" cy="29.4" r="1.1" fill="#ffffff"/>
  <circle cx="40.2" cy="29.4" r="1.1" fill="#ffffff"/>
  <!-- smile -->
  <path d="M27 40 Q32 45 37 40" stroke="#23303a" stroke-width="2" fill="none" stroke-linecap="round"/>
  <!-- sparkle -->
  <path d="M48 14 l1.6 3.4 3.4 1.6 -3.4 1.6 -1.6 3.4 -1.6 -3.4 -3.4 -1.6 3.4 -1.6 Z" fill="#ffe27a"/>
</svg>
